<?xml version="1.0" encoding="UTF-8" standalone="no"?>
<!DOCTYPE svg PUBLIC "-//W3C//DTD SVG 1.1//EN" "http://www.w3.org/Graphics/SVG/1.1/DTD/svg11.dtd">
<!-- Generated by Microsoft Visio, SVG Export csr_out.svg Page-1 -->
<svg xmlns="http://www.w3.org/2000/svg" xmlns:xlink="http://www.w3.org/1999/xlink" xmlns:ev="http://www.w3.org/2001/xml-events"
		xmlns:v="http://schemas.microsoft.com/visio/2003/SVGExtensions/" width="4.52986in" height="4.12515in"
		viewBox="0 0 326.15 297.011" xml:space="preserve" color-interpolation-filters="sRGB" class="st21">
	<v:documentProperties v:langID="1033" v:metric="true" v:viewMarkup="false"/>

	<style type="text/css">
	<![CDATA[
		.st1 {stroke:#c8c8c8;stroke-linecap:butt;stroke-width:1.5}
		.st2 {fill:#ffffff;stroke:none;stroke-linecap:butt;stroke-width:7.2}
		.st3 {fill:#4672c4;font-family:Calibri;font-size:0.833336em}
		.st4 {marker-end:url(#mrkr4-12);stroke:#4672c4;stroke-linecap:round;stroke-linejoin:round;stroke-width:1}
		.st5 {fill:#4672c4;fill-opacity:1;stroke:#4672c4;stroke-opacity:1;stroke-width:0.28409090909091}
		.st6 {fill:url(#grad0-22);stroke:#3c63ac;stroke-width:0.75}
		.st7 {fill:#3c63ac;font-family:Calibri;font-size:0.833336em}
		.st8 {font-size:1em}
		.st9 {fill:#4672c4;stroke:#c7c8c8;stroke-width:0.25}
		.st10 {fill:#feffff;font-family:Calibri;font-size:1.00001em}
		.st11 {fill:#3c63ac;font-family:Calibri;font-size:0.833336em;font-style:italic}
		.st12 {fill:#ffffff;stroke:#e8ebf4;stroke-width:0.75}
		.st13 {fill:#4672c4;font-family:Calibri;font-size:1.00001em}
		.st14 {stroke:none;stroke-linecap:round;stroke-linejoin:round;stroke-width:0.75}
		.st15 {fill:#000000;font-family:Calibri;font-size:0.926422em}
		.st16 {stroke:#d4d4d4;stroke-linecap:round;stroke-linejoin:round;stroke-width:0.75}
		.st17 {fill:#d4d4d4;stroke:none;stroke-linecap:round;stroke-linejoin:round;stroke-width:0.75}
		.st18 {fill:url(#grad0-22)}
		.st19 {stroke:#3c63ac;stroke-width:0.75}
		.st20 {fill:none;stroke:none;stroke-width:0.25}
		.st21 {fill:none;fill-rule:evenodd;font-size:12px;overflow:visible;stroke-linecap:square;stroke-miterlimit:3}
	]]>
	</style>

	<defs id="Patterns_And_Gradients">
		<linearGradient id="grad0-22" x1="0" y1="0" x2="1" y2="0" gradientTransform="rotate(60 0.5 0.5)">
			<stop offset="0" stop-color="#e8ebf4" stop-opacity="1"/>
			<stop offset="0.24" stop-color="#f4f5f9" stop-opacity="1"/>
			<stop offset="0.54" stop-color="#feffff" stop-opacity="1"/>
		</linearGradient>
	</defs>
	<defs id="Markers">
		<g id="lend4">
			<path d="M 2 1 L 0 0 L 2 -1 L 2 1 " style="stroke:none"/>
		</g>
		<marker id="mrkr4-12" class="st5" v:arrowType="4" v:arrowSize="2" v:setback="7.04" refX="-7.04" orient="auto"
				markerUnits="strokeWidth" overflow="visible">
			<use xlink:href="#lend4" transform="scale(-3.52,-3.52) "/>
		</marker>
	</defs>
	<g v:mID="0" v:index="1" v:groupContext="foregroundPage">
		<v:userDefs>
			<v:ud v:nameU="LineBusCount" v:prompt="" v:val="VT0(4):26"/>
		</v:userDefs>
		<title>Page-1</title>
		<v:pageProperties v:drawingScale="0.0393701" v:pageScale="0.0393701" v:drawingUnits="24" v:shadowOffsetX="8.50394"
				v:shadowOffsetY="-8.50394"/>
		<v:layer v:name="Electrical" v:index="0"/>
		<v:layer v:name="Connector" v:index="1"/>
		<g id="shape1000-1" v:mID="1000" v:groupContext="shape" v:layerMember="0" transform="translate(1.5,-205.551)">
			<title>2-line bus.1029</title>
			<desc>Avalon Interconnect</desc>
			<v:custProps>
				<v:cp v:nameU="Label" v:lbl="Label" v:prompt="" v:type="0" v:format="@" v:sortKey="" v:invis="false" v:ask="false"
						v:langID="1033" v:cal="0" v:val="VT4()"/>
				<v:cp v:nameU="Label" v:lbl="" v:prompt="" v:type="0" v:format="" v:sortKey="" v:invis="false" v:ask="false"
						v:langID="0" v:cal="0" v:val="VT4(Avalon Interconnect)"/>
			</v:custProps>
			<v:userDefs>
				<v:ud v:nameU="visDescription" v:val="VT4(4-channel bus elbow. Adjust height handle to control line spacing.)"/>
				<v:ud v:nameU="visVersion" v:val="VT0(15):26"/>
				<v:ud v:nameU="YSpacing" v:val="VT0(0.098425196850394):24"/>
				<v:ud v:nameU="Label" v:prompt="" v:val="VT4()"/>
				<v:ud v:nameU="SolSH" v:prompt="" v:val="VT4({2EE3C7D2-E26E-4B72-9E9C-5170DDBF261A})"/>
				<v:ud v:nameU="YSpacing" v:prompt="" v:val="VT0(0.19685039):1"/>
				<v:ud v:nameU="Label" v:prompt="" v:val="VT4(W3)"/>
			</v:userDefs>
			<v:textBlock v:margins="rect(1,1,1,1)" v:tabSpace="42.5197" v:verticalAlign="0"/>
			<v:textRect cx="154.976" cy="291.34" width="86.59" height="14.0036"/>
			<path d="M0 297.01 L323.15 297.01" class="st1"/>
			<path d="M0 282.84 L323.15 282.84" class="st1"/>
			<rect v:rectContext="textBkgnd" x="113.813" y="285.339" width="82.325" height="12.0001" class="st2"/>
			<text x="113.81" y="294.34" class="st3" v:langID="4105"><v:paragraph v:horizAlign="1"/><v:tabList/>Avalon Interconnect</text>		</g>
		<g id="shape1036-7" v:mID="1036" v:groupContext="shape" v:layerMember="1" transform="translate(223.037,-205.76)">
			<title>Dynamic connector.1052</title>
			<path d="M-7.09 297.01 L-7.09 327.24" class="st4"/>
		</g>
		<g id="shape1072-13" v:mID="1072" v:groupContext="shape" v:layerMember="1" transform="translate(99.5391,-239.109)">
			<title>Dynamic connector.1030</title>
			<path d="M-6.84 297.01 L-7.15 309.36" class="st4"/>
		</g>
		<g id="group1073-18" transform="translate(11.2003,-239.109)" v:mID="1073" v:groupContext="group">
			<title>Sheet.1073</title>
			<g id="shape1070-19" v:mID="1070" v:groupContext="shape" transform="translate(0,-14.1732)">
				<title>Rectangle.1026</title>
				<desc>Some component with a host role (e.g. CPU, JTAG-Avalon MM Mas...</desc>
				<v:userDefs>
					<v:ud v:nameU="visVersion" v:val="VT0(15):26"/>
				</v:userDefs>
				<v:textBlock v:margins="rect(4,4,4,4)" v:tabSpace="42.5197" v:verticalAlign="0"/>
				<v:textRect cx="81.4961" cy="275.521" width="163" height="42.979"/>
				<rect x="0" y="254.032" width="162.992" height="42.979" class="st6"/>
				<text x="4" y="267.03" class="st7" v:langID="1033"><v:paragraph/><v:tabList/>Some component with a host role <tspan
							x="4" dy="1.2em" class="st8">(e.g. CPU, JTAG</tspan>-Avalon MM Master)</text>			</g>
			<g id="shape1071-25" v:mID="1071" v:groupContext="shape" transform="translate(50.315,0)">
				<title>Sheet.1071</title>
				<desc>MM Host</desc>
				<v:textBlock v:margins="rect(4,4,4,4)" v:tabSpace="42.5197"/>
				<v:textRect cx="31.1811" cy="289.924" width="62.37" height="14.1732"/>
				<rect x="0" y="282.838" width="62.3622" height="14.1732" class="st9"/>
				<text x="8.31" y="293.52" class="st10" v:langID="1033"><v:paragraph v:horizAlign="1"/><v:tabList/>MM Host</text>			</g>
		</g>
		<g id="group1081-28" transform="translate(38.8152,-0.75)" v:mID="1081" v:groupContext="group">
			<title>Sheet.1081</title>
			<g id="shape1038-29" v:mID="1038" v:groupContext="shape">
				<title>Rectangle</title>
				<desc>Kernel</desc>
				<v:userDefs>
					<v:ud v:nameU="visVersion" v:val="VT0(15):26"/>
				</v:userDefs>
				<v:textBlock v:margins="rect(4,4,4,4)" v:tabSpace="42.5197" v:verticalAlign="2"/>
				<v:textRect cx="124.26" cy="218.391" width="248.52" height="157.24"/>
				<rect x="0" y="139.771" width="248.519" height="157.24" class="st6"/>
				<text x="111.45" y="290.01" class="st11" v:langID="1033"><v:paragraph v:horizAlign="1"/><v:tabList/>Kernel</text>			</g>
			<g id="group1039-33" transform="translate(138.41,-42.5186)" v:mID="1039" v:groupContext="group">
				<title>Sheet.1039</title>
				<g id="shape1040-34" v:mID="1040" v:groupContext="shape" transform="translate(0.940386,-8.49508E-09)">
					<title>Sheet.1040</title>
					<desc>CSR</desc>
					<v:textBlock v:margins="rect(4,4,4,4)" v:tabSpace="42.5197" v:verticalAlign="0"/>
					<v:textRect cx="43.1842" cy="239.559" width="86.37" height="114.904"/>
					<rect x="0" y="182.106" width="86.3684" height="114.904" class="st12"/>
					<text x="35.33" y="196.91" class="st13" v:langID="1033"><v:paragraph v:horizAlign="1"/><v:tabList/>CSR</text>				</g>
				<g id="shape1041-37" v:mID="1041" v:groupContext="shape" transform="translate(10.3262,-111.26)">
					<title>Sheet.1041</title>
					<desc>MM Agent</desc>
					<v:textBlock v:margins="rect(4,4,4,4)" v:tabSpace="42.5197"/>
					<v:textRect cx="31.1811" cy="289.924" width="62.37" height="14.1732"/>
					<rect x="0" y="282.838" width="62.3622" height="14.1732" class="st9"/>
					<text x="5.12" y="293.52" class="st10" v:langID="1033"><v:paragraph v:horizAlign="1"/><v:tabList/>MM Agent</text>				</g>
				<g id="shape1042-40" v:mID="1042" v:groupContext="shape" transform="translate(3.48851,-73.6226)">
					<title>Sheet.1042</title>
					<desc>Start</desc>
					<v:textBlock v:margins="rect(0,0,0,0)" v:tabSpace="42.5197"/>
					<v:textRect cx="15.0354" cy="290.339" width="30.08" height="13.3441"/>
					<path d="M30.07 283.67 L0 283.67 L0 297.01 L30.07 297.01 L30.07 283.67" class="st14"/>
					<text x="4.16" y="293.67" class="st15" v:langID="1033"><v:paragraph v:horizAlign="1"/><v:tabList/>Start</text>				</g>
				<g id="shape1043-44" v:mID="1043" v:groupContext="shape" transform="translate(3.48851,-58.8)">
					<title>Sheet.1043</title>
					<desc>Done</desc>
					<v:textBlock v:margins="rect(0,0,0,0)" v:tabSpace="42.5197"/>
					<v:textRect cx="16.4711" cy="290.339" width="32.95" height="13.3441"/>
					<path d="M32.94 283.67 L0 283.67 L0 297.01 L32.94 297.01 L32.94 283.67" class="st14"/>
					<text x="4.43" y="293.67" class="st15" v:langID="1033"><v:paragraph v:horizAlign="1"/><v:tabList/>Done</text>				</g>
				<g id="shape1044-48" v:mID="1044" v:groupContext="shape" transform="translate(3.23837,-43.9774)">
					<title>Sheet.1044</title>
					<desc>FinishCounter</desc>
					<v:textBlock v:margins="rect(0,0,0,0)" v:tabSpace="42.5197"/>
					<v:textRect cx="37.5823" cy="290.339" width="75.17" height="13.3441"/>
					<path d="M75.16 283.67 L0 283.67 L0 297.01 L75.16 297.01 L75.16 283.67" class="st14"/>
					<text x="6.16" y="293.67" class="st15" v:langID="1033"><v:paragraph v:horizAlign="1"/><v:tabList/>FinishCounter</text>				</g>
				<g id="shape1045-52" v:mID="1045" v:groupContext="shape" transform="translate(1.0775,-89.1901)">
					<title>Sheet.1045</title>
					<path d="M0 297.01 L85.99 297.01" class="st16"/>
				</g>
				<g id="shape1046-55" v:mID="1046" v:groupContext="shape" transform="translate(1.0775,-88.449)">
					<title>Sheet.1046</title>
					<path d="M85.99 296.27 L0 296.27 L0 297.01 L85.99 297.01 L85.99 296.27 Z" class="st17"/>
				</g>
				<g id="shape1047-57" v:mID="1047" v:groupContext="shape" transform="translate(1.0775,-74.3675)">
					<title>Sheet.1047</title>
					<path d="M0 297.01 L85.99 297.01" class="st16"/>
				</g>
				<g id="shape1048-60" v:mID="1048" v:groupContext="shape" transform="translate(1.0775,-73.6264)">
					<title>Sheet.1048</title>
					<path d="M85.99 296.27 L0 296.27 L0 297.01 L85.99 297.01 L85.99 296.27 Z" class="st17"/>
				</g>
				<g id="shape1049-62" v:mID="1049" v:groupContext="shape" transform="translate(1.0775,-59.5449)">
					<title>Sheet.1049</title>
					<path d="M0 297.01 L85.99 297.01" class="st16"/>
				</g>
				<g id="shape1050-65" v:mID="1050" v:groupContext="shape" transform="translate(1.0775,-58.8037)">
					<title>Sheet.1050</title>
					<path d="M85.99 296.27 L0 296.27 L0 297.01 L85.99 297.01 L85.99 296.27 Z" class="st17"/>
				</g>
				<g id="shape1051-67" v:mID="1051" v:groupContext="shape" transform="translate(-1.59872E-14,-44.7222)">
					<title>Sheet.1051</title>
					<path d="M0 297.01 L79.83 297.01" class="st16"/>
				</g>
				<g id="shape1052-70" v:mID="1052" v:groupContext="shape" transform="translate(1.00024,-43.9811)">
					<title>Sheet.1052</title>
					<path d="M0 251.8 L0 297.01" class="st16"/>
				</g>
				<g id="shape1053-73" v:mID="1053" v:groupContext="shape" transform="translate(1.0775,-43.9811)">
					<title>Sheet.1053</title>
					<path d="M0.8 251.8 L0 251.8 L0 297.01 L0.8 297.01 L0.8 251.8 Z" class="st17"/>
				</g>
				<g id="shape1054-75" v:mID="1054" v:groupContext="shape" transform="translate(87.0703,-43.9811)">
					<title>Sheet.1054</title>
					<path d="M0.8 251.8 L0 251.8 L0 297.01 L0.8 297.01 L0.8 251.8 Z" class="st17"/>
				</g>
				<g id="shape1055-77" v:mID="1055" v:groupContext="shape" transform="translate(4.09252,-31.7271)">
					<title>Sheet.1055</title>
					<desc>some_arg</desc>
					<v:textBlock v:margins="rect(0,0,0,0)" v:tabSpace="42.5197"/>
					<v:textRect cx="41.9052" cy="290.339" width="83.82" height="13.3441"/>
					<path d="M83.81 283.67 L0 283.67 L0 297.01 L83.81 297.01 L83.81 283.67" class="st14"/>
					<text x="0" y="293.67" class="st15" v:langID="4105"><v:paragraph/><v:tabList/>some_arg</text>				</g>
				<g id="shape1056-81" v:mID="1056" v:groupContext="shape" transform="translate(4.15728,-16.9045)">
					<title>Sheet.1056</title>
					<desc>some_other_arg</desc>
					<v:textBlock v:margins="rect(0,0,0,0)" v:tabSpace="42.5197"/>
					<v:textRect cx="41.9052" cy="290.339" width="83.82" height="13.3441"/>
					<path d="M83.81 283.67 L0 283.67 L0 297.01 L83.81 297.01 L83.81 283.67" class="st14"/>
					<text x="0" y="293.67" class="st15" v:langID="4105"><v:paragraph/><v:tabList/>some_other_arg</text>				</g>
				<g id="shape1057-85" v:mID="1057" v:groupContext="shape" transform="translate(4.09252,-2.08189)">
					<title>Sheet.1057</title>
					<desc>some_output</desc>
					<v:textBlock v:margins="rect(0,0,0,0)" v:tabSpace="42.5197"/>
					<v:textRect cx="41.9052" cy="290.339" width="83.82" height="13.3441"/>
					<path d="M83.81 283.67 L0 283.67 L0 297.01 L83.81 297.01 L83.81 283.67" class="st14"/>
					<text x="0" y="293.67" class="st15" v:langID="4105"><v:paragraph/><v:tabList/>some_output</text>				</g>
				<g id="shape1058-89" v:mID="1058" v:groupContext="shape" transform="translate(0.740519,-45.209)">
					<title>Sheet.1058</title>
					<path d="M0 297.01 L86.37 297.01" class="st16"/>
				</g>
				<g id="shape1059-92" v:mID="1059" v:groupContext="shape" transform="translate(0.740519,-44.4679)">
					<title>Sheet.1059</title>
					<path d="M86.37 296.27 L0 296.27 L0 297.01 L86.37 297.01 L86.37 296.27 Z" class="st17"/>
				</g>
				<g id="shape1060-94" v:mID="1060" v:groupContext="shape" transform="translate(0.740519,-30.3864)">
					<title>Sheet.1060</title>
					<path d="M0 297.01 L86.37 297.01" class="st16"/>
				</g>
				<g id="shape1061-97" v:mID="1061" v:groupContext="shape" transform="translate(0.740519,-29.6452)">
					<title>Sheet.1061</title>
					<path d="M86.37 296.27 L0 296.27 L0 297.01 L86.37 297.01 L86.37 296.27 Z" class="st17"/>
				</g>
				<g id="shape1062-99" v:mID="1062" v:groupContext="shape" transform="translate(0.740519,-15.5638)">
					<title>Sheet.1062</title>
					<path d="M0 297.01 L86.37 297.01" class="st16"/>
				</g>
				<g id="shape1063-102" v:mID="1063" v:groupContext="shape" transform="translate(0.740519,-14.8226)">
					<title>Sheet.1063</title>
					<path d="M86.37 296.27 L0 296.27 L0 297.01 L86.37 297.01 L86.37 296.27 Z" class="st17"/>
				</g>
				<g id="shape1064-104" v:mID="1064" v:groupContext="shape" transform="translate(0.740519,-0.741131)">
					<title>Sheet.1064</title>
					<path d="M0 297.01 L86.37 297.01" class="st16"/>
				</g>
				<g id="shape1065-107" v:mID="1065" v:groupContext="shape" transform="translate(0.740519,0)">
					<title>Sheet.1065</title>
					<path d="M86.37 296.27 L0 296.27 L0 297.01 L86.37 297.01 L86.37 296.27 Z" class="st17"/>
				</g>
				<g id="shape1066-109" v:mID="1066" v:groupContext="shape" transform="translate(0.740519,-8.49508E-09)">
					<title>Sheet.1066</title>
					<path d="M0 251.8 L0 297.01" class="st16"/>
				</g>
				<g id="shape1067-112" v:mID="1067" v:groupContext="shape" transform="translate(0.740519,0)">
					<title>Sheet.1067</title>
					<path d="M0.81 251.8 L0 251.8 L0 297.01 L0.81 297.01 L0.81 251.8 Z" class="st17"/>
				</g>
				<g id="shape1068-114" v:mID="1068" v:groupContext="shape" transform="translate(87.109,-8.49508E-09)">
					<title>Sheet.1068</title>
					<path d="M0 251.8 L0 297.01" class="st16"/>
				</g>
				<g id="shape1069-117" v:mID="1069" v:groupContext="shape" transform="translate(87.109,0)">
					<title>Sheet.1069</title>
					<path d="M0.81 251.8 L0 251.8 L0 297.01 L0.81 297.01 L0.81 251.8 Z" class="st17"/>
				</g>
			</g>
			<g id="shape1074-119" v:mID="1074" v:groupContext="shape" transform="translate(29.5199,-32.4213)">
				<title>Cloud.1074</title>
				<v:userDefs>
					<v:ud v:nameU="visVersion" v:prompt="" v:val="VT0(15):26"/>
				</v:userDefs>
				<path d="M3.37 271.34 A5.41106 8.33275 0 0 1 5.97 255.34 A10.973 16.8979 0 0 1 21.89 241.83 A12.6001 19.4034 0 0
							 1 35.53 238.82 A7.90136 12.1677 0 0 1 47.23 237.82 A8.99585 13.8531 0 0 1 61.53 242.82 A6.43229 9.90504
							 0 0 1 66.72 256.83 A7.96721 12.2687 0 0 1 60.23 276.85 A10.0513 15.4779 0 0 1 45.94 286.85 A11.8513
							 18.2498 0 0 1 26.44 290.86 A15.0231 23.134 0 0 1 9.54 286.85 A5.92691 9.12713 0 0 1 3.37 271.34 Z"
						class="st18"/>
				<path d="M3.37 271.34 A5.41106 8.33275 0 0 1 5.97 255.34 A10.973 16.8979 0 0 1 21.89 241.83 A12.6001 19.4034 0 0
							 1 35.53 238.82 A7.90136 12.1677 0 0 1 47.23 237.82 A8.99585 13.8531 0 0 1 61.53 242.82 A6.43229 9.90504
							 0 0 1 66.72 256.83 A7.96721 12.2687 0 0 1 60.23 276.85 A10.0513 15.4779 0 0 1 45.94 286.85 A11.8513
							 18.2498 0 0 1 26.44 290.86 A15.0231 23.134 0 0 1 9.54 286.85 A5.92691 9.12713 0 0 1 3.37 271.34"
						class="st19"/>
				<path d="M6.94 271.84 A5.39611 8.30972 0 0 1 3.37 271.34" class="st19"/>
				<path d="M25.46 288.36 A5.4196 8.34589 -180 0 0 26.44 290.86" class="st19"/>
				<path d="M46.42 283.85 A4.37493 6.73717 0 0 1 45.94 286.85" class="st19"/>
				<path d="M56.33 268.84 A4.59072 7.06947 0 0 1 60.23 276.85" class="st19"/>
				<path d="M64.78 259.84 A4.19112 6.45411 -180 0 0 66.72 256.83" class="st19"/>
				<path d="M23.84 243.83 A6.4631 9.95249 -180 0 0 21.89 241.83" class="st19"/>
			</g>
			<g id="shape1076-129" v:mID="1076" v:groupContext="shape" transform="translate(50.9017,-21.2598)">
				<title>Circle.1076</title>
				<desc>WR</desc>
				<v:userDefs>
					<v:ud v:nameU="visVersion" v:val="VT0(15):26"/>
				</v:userDefs>
				<v:textBlock v:margins="rect(4,4,4,4)" v:tabSpace="42.5197"/>
				<v:textRect cx="12.8778" cy="284.133" width="22.54" height="19.3168"/>
				<path d="M0 284.13 A12.8778 12.8778 0 0 1 25.76 284.13 A12.8778 12.8778 0 1 1 0 284.13 Z" class="st6"/>
				<text x="5.71" y="287.13" class="st7" v:langID="4105"><v:paragraph v:horizAlign="1"/><v:tabList/>WR</text>			</g>
			<g id="shape1077-133" v:mID="1077" v:groupContext="shape" v:layerMember="1" transform="translate(76.6574,-34.1377)">
				<title>Dynamic connector.1077</title>
				<path d="M0 297.01 L36.73 297.01 L36.73 281.54 L55.65 281.54" class="st4"/>
			</g>
			<g id="shape1078-138" v:mID="1078" v:groupContext="shape" v:layerMember="1" transform="translate(139.35,-77.2028)">
				<title>Dynamic connector.1078</title>
				<path d="M0 293.43 L-11.79 293.43 L-11.79 256.31 L-97.69 256.31 L-97.69 279.38" class="st4"/>
			</g>
			<g id="shape1079-143" v:mID="1079" v:groupContext="shape" v:layerMember="1" transform="translate(139.35,-65.1968)">
				<title>Dynamic connector.1079</title>
				<path d="M0 297.01 L-25.96 297.01 L-25.96 253.39 L-54.08 253.39 L-54.08 260.59" class="st4"/>
			</g>
			<g id="shape1080-148" v:mID="1080" v:groupContext="shape" transform="translate(36.6065,-63.7795)">
				<title>Sheet.1080</title>
				<desc>Kernel Logic</desc>
				<v:textBlock v:margins="rect(4,4,4,4)" v:tabSpace="42.5197" v:verticalAlign="0"/>
				<v:textRect cx="27.173" cy="284.255" width="54.35" height="25.5118"/>
				<rect x="0" y="271.499" width="54.346" height="25.5118" class="st20"/>
				<text x="14.08" y="284.5" class="st3" v:langID="4105"><v:paragraph v:horizAlign="1"/><v:tabList/>Kernel <tspan
							x="16.82" dy="1.2em" class="st8">Logic</tspan></text>			</g>
		</g>
	</g>
</svg>
